<svg xmlns="http://www.w3.org/2000/svg" width="53.333" height="53.333" viewBox="0 0 53.333 53.333"><defs><style>.a{fill:#1453ff;}.b{fill:none;}</style></defs><path class="a" d="M24.212,2A22.222,22.222,0,1,0,46.434,24.222,22.23,22.23,0,0,0,24.212,2Zm8.022,14.089a4.289,4.289,0,1,1-4.289,4.289A4.277,4.277,0,0,1,32.234,16.089ZM18.9,12.578a5.244,5.244,0,1,1-5.244,5.244A5.254,5.254,0,0,1,18.9,12.578Zm0,20.289V41.2A17.793,17.793,0,0,1,7.479,30.178c2.333-2.489,8.156-3.756,11.422-3.756a22.605,22.605,0,0,1,4.222.489C19.479,28.844,18.9,31.4,18.9,32.867ZM24.212,42a15.224,15.224,0,0,1-1.756-.089V32.867c0-3.156,6.533-4.733,9.778-4.733,2.378,0,6.489.867,8.533,2.556A17.819,17.819,0,0,1,24.212,42Z" transform="translate(2.432 2.444)"/><path class="b" d="M0,0H53.333V53.333H0Z"/></svg>