<svg xmlns="http://www.w3.org/2000/svg" width="53.333" height="53.333" viewBox="0 0 53.333 53.333"><defs><style>.a{fill:none;}.b{fill:#1453ff;}</style></defs><path class="a" d="M0,0H53.333V53.333H0Z"/><path class="b" d="M38.556,5.444H29.267a6.64,6.64,0,0,0-12.533,0H7.444A4.458,4.458,0,0,0,3,9.889V41a4.458,4.458,0,0,0,4.444,4.444H38.556A4.458,4.458,0,0,0,43,41V9.889A4.458,4.458,0,0,0,38.556,5.444ZM23,5.444a2.222,2.222,0,1,1-2.222,2.222A2.229,2.229,0,0,1,23,5.444ZM18.556,36.556,9.667,27.667,12.8,24.533l5.756,5.733L33.2,15.622l3.133,3.156Z" transform="translate(3.667 1.222)"/></svg>